<?xml version="1.0" encoding="UTF-8" standalone="no"?>
<!-- Created with Inkscape (http://www.inkscape.org/) -->

<svg
   xmlns:dc="http://purl.org/dc/elements/1.1/"
   xmlns:cc="http://creativecommons.org/ns#"
   xmlns:rdf="http://www.w3.org/1999/02/22-rdf-syntax-ns#"
   xmlns:svg="http://www.w3.org/2000/svg"
   xmlns="http://www.w3.org/2000/svg"
   xmlns:sodipodi="http://sodipodi.sourceforge.net/DTD/sodipodi-0.dtd"
   xmlns:inkscape="http://www.inkscape.org/namespaces/inkscape"
   id="svg2"
   version="1.1"
   inkscape:version="0.91 r13725"
   xml:space="preserve"
   width="333.07062"
   height="250.13374"
   viewBox="0 0 333.0706 250.13374"
   sodipodi:docname="logo_inbitcoin_new.svg"><metadata
     id="metadata8"><rdf:RDF><cc:Work
         rdf:about=""><dc:format>image/svg+xml</dc:format><dc:type
           rdf:resource="http://purl.org/dc/dcmitype/StillImage" /><dc:title></dc:title></cc:Work></rdf:RDF></metadata><defs
     id="defs6"><clipPath
       clipPathUnits="userSpaceOnUse"
       id="clipPath60"><path
         d="m 0,0 841.89,0 0,595.276 L 0,595.276 0,0 Z"
         id="path62"
         inkscape:connector-curvature="0" /></clipPath><clipPath
       clipPathUnits="userSpaceOnUse"
       id="clipPath68"><path
         d="m 165.105,462.443 42.047,0 0,-49.726 -42.047,0 0,49.726 z"
         id="path70"
         inkscape:connector-curvature="0" /></clipPath><clipPath
       clipPathUnits="userSpaceOnUse"
       id="clipPath84"><path
         d="m 113.45,465.004 -11.245,-50.432 62.712,-74.679 9.822,46.434 -44.532,53.022 67.197,53.889 9.915,46.762 -93.869,-74.996 z"
         id="path86"
         inkscape:connector-curvature="0" /></clipPath><clipPath
       clipPathUnits="userSpaceOnUse"
       id="clipPath92"><path
         d="m 69.0952,436.457 660.9038,0 0,-348.4486 -660.9038,0 0,348.4486 z"
         id="path94"
         inkscape:connector-curvature="0" /></clipPath><clipPath
       clipPathUnits="userSpaceOnUse"
       id="clipPath108"><path
         d="m 69.0952,643.408 660.9038,0 0,-348.448 -660.9038,0 0,348.448 z"
         id="path110"
         inkscape:connector-curvature="0" /></clipPath><clipPath
       clipPathUnits="userSpaceOnUse"
       id="clipPath124"><path
         d="m 69.0952,643.408 660.9038,0 0,-348.448 -660.9038,0 0,348.448 z"
         id="path126"
         inkscape:connector-curvature="0" /></clipPath><clipPath
       clipPathUnits="userSpaceOnUse"
       id="clipPath140"><path
         d="m 69.0952,436.457 660.9038,0 0,-348.4486 -660.9038,0 0,348.4486 z"
         id="path142"
         inkscape:connector-curvature="0" /></clipPath><clipPath
       clipPathUnits="userSpaceOnUse"
       id="clipPath156"><path
         d="m 328.799,696.16 348.448,0 0,-660.9034 -348.448,0 0,660.9034 z"
         id="path158"
         inkscape:connector-curvature="0" /></clipPath><clipPath
       clipPathUnits="userSpaceOnUse"
       id="clipPath172"><path
         d="m 121.847,696.16 348.448,0 0,-660.9032 -348.448,0 0,660.9032 z"
         id="path174"
         inkscape:connector-curvature="0" /></clipPath><clipPath
       clipPathUnits="userSpaceOnUse"
       id="clipPath188"><path
         d="m 121.847,696.16 348.448,0 0,-660.9034 -348.448,0 0,660.9034 z"
         id="path190"
         inkscape:connector-curvature="0" /></clipPath><clipPath
       clipPathUnits="userSpaceOnUse"
       id="clipPath204"><path
         d="m 328.799,696.16 348.448,0 0,-660.9032 -348.448,0 0,660.9032 z"
         id="path206"
         inkscape:connector-curvature="0" /></clipPath><clipPath
       clipPathUnits="userSpaceOnUse"
       id="clipPath256"><path
         d="m 0,0 841.89,0 0,595.276 L 0,595.276 0,0 Z"
         id="path258"
         inkscape:connector-curvature="0" /></clipPath><clipPath
       clipPathUnits="userSpaceOnUse"
       id="clipPath264"><path
         d="m 165.105,182.904 42.047,0 0,-49.726 -42.047,0 0,49.726 z"
         id="path266"
         inkscape:connector-curvature="0" /></clipPath><clipPath
       clipPathUnits="userSpaceOnUse"
       id="clipPath280"><path
         d="m 113.45,185.465 -11.245,-50.432 62.712,-74.679 9.822,46.434 -44.532,53.022 67.197,53.89 9.915,46.761 -93.869,-74.996 z"
         id="path282"
         inkscape:connector-curvature="0" /></clipPath><clipPath
       clipPathUnits="userSpaceOnUse"
       id="clipPath288"><path
         d="m 78.0952,161.918 660.9038,0 0,-348.448 -660.9038,0 0,348.448 z"
         id="path290"
         inkscape:connector-curvature="0" /></clipPath><clipPath
       clipPathUnits="userSpaceOnUse"
       id="clipPath304"><path
         d="m 78.0952,368.87 660.9038,0 0,-348.4485 -660.9038,0 0,348.4485 z"
         id="path306"
         inkscape:connector-curvature="0" /></clipPath><clipPath
       clipPathUnits="userSpaceOnUse"
       id="clipPath320"><path
         d="m 78.0952,368.87 660.9038,0 0,-348.4486 -660.9038,0 0,348.4486 z"
         id="path322"
         inkscape:connector-curvature="0" /></clipPath><clipPath
       clipPathUnits="userSpaceOnUse"
       id="clipPath336"><path
         d="m 78.0952,161.918 660.9038,0 0,-348.448 -660.9038,0 0,348.448 z"
         id="path338"
         inkscape:connector-curvature="0" /></clipPath><clipPath
       clipPathUnits="userSpaceOnUse"
       id="clipPath352"><path
         d="m 130.847,421.621 348.448,0 0,-660.903 -348.448,0 0,660.903 z"
         id="path354"
         inkscape:connector-curvature="0" /></clipPath><clipPath
       clipPathUnits="userSpaceOnUse"
       id="clipPath368"><path
         d="m 337.799,421.621 348.448,0 0,-660.903 -348.448,0 0,660.903 z"
         id="path370"
         inkscape:connector-curvature="0" /></clipPath><clipPath
       clipPathUnits="userSpaceOnUse"
       id="clipPath384"><path
         d="m 337.799,421.621 348.448,0 0,-660.903 -348.448,0 0,660.903 z"
         id="path386"
         inkscape:connector-curvature="0" /></clipPath><clipPath
       clipPathUnits="userSpaceOnUse"
       id="clipPath400"><path
         d="m 130.847,421.621 348.448,0 0,-660.903 -348.448,0 0,660.903 z"
         id="path402"
         inkscape:connector-curvature="0" /></clipPath><clipPath
       clipPathUnits="userSpaceOnUse"
       id="clipPath452"><path
         d="m 0,0 841.89,0 0,595.276 L 0,595.276 0,0 Z"
         id="path454"
         inkscape:connector-curvature="0" /></clipPath><clipPath
       clipPathUnits="userSpaceOnUse"
       id="clipPath460"><path
         d="m 550.459,182.904 42.047,0 0,-49.726 -42.047,0 0,49.726 z"
         id="path462"
         inkscape:connector-curvature="0" /></clipPath><clipPath
       clipPathUnits="userSpaceOnUse"
       id="clipPath476"><path
         d="m 498.804,185.465 -11.245,-50.432 62.713,-74.679 9.821,46.434 -44.532,53.022 67.198,53.89 9.913,46.761 -93.868,-74.996 z"
         id="path478"
         inkscape:connector-curvature="0" /></clipPath><clipPath
       clipPathUnits="userSpaceOnUse"
       id="clipPath484"><path
         d="m 356.45,231.918 660.9,0 0,-348.448 -660.9,0 0,348.448 z"
         id="path486"
         inkscape:connector-curvature="0" /></clipPath><clipPath
       clipPathUnits="userSpaceOnUse"
       id="clipPath500"><path
         d="m 356.45,438.87 660.9,0 0,-348.4485 -660.9,0 0,348.4485 z"
         id="path502"
         inkscape:connector-curvature="0" /></clipPath><clipPath
       clipPathUnits="userSpaceOnUse"
       id="clipPath516"><path
         d="m 356.45,438.87 660.9,0 0,-348.4486 -660.9,0 0,348.4486 z"
         id="path518"
         inkscape:connector-curvature="0" /></clipPath><clipPath
       clipPathUnits="userSpaceOnUse"
       id="clipPath532"><path
         d="m 356.45,231.918 660.9,0 0,-348.448 -660.9,0 0,348.448 z"
         id="path534"
         inkscape:connector-curvature="0" /></clipPath><clipPath
       clipPathUnits="userSpaceOnUse"
       id="clipPath548"><path
         d="m 616.153,491.621 348.448,0 0,-660.903 -348.448,0 0,660.903 z"
         id="path550"
         inkscape:connector-curvature="0" /></clipPath><clipPath
       clipPathUnits="userSpaceOnUse"
       id="clipPath564"><path
         d="m 409.201,491.621 348.449,0 0,-660.903 -348.449,0 0,660.903 z"
         id="path566"
         inkscape:connector-curvature="0" /></clipPath><clipPath
       clipPathUnits="userSpaceOnUse"
       id="clipPath580"><path
         d="m 409.202,491.621 348.448,0 0,-660.903 -348.448,0 0,660.903 z"
         id="path582"
         inkscape:connector-curvature="0" /></clipPath><clipPath
       clipPathUnits="userSpaceOnUse"
       id="clipPath596"><path
         d="m 616.153,491.621 348.448,0 0,-660.903 -348.448,0 0,660.903 z"
         id="path598"
         inkscape:connector-curvature="0" /></clipPath><clipPath
       clipPathUnits="userSpaceOnUse"
       id="clipPath648"><path
         d="m 0,0 841.89,0 0,595.276 L 0,595.276 0,0 Z"
         id="path650"
         inkscape:connector-curvature="0" /></clipPath><clipPath
       clipPathUnits="userSpaceOnUse"
       id="clipPath656"><path
         d="m 550.459,462.443 42.047,0 0,-49.726 -42.047,0 0,49.726 z"
         id="path658"
         inkscape:connector-curvature="0" /></clipPath><clipPath
       clipPathUnits="userSpaceOnUse"
       id="clipPath672"><path
         d="m 498.804,465.004 -11.245,-50.432 62.713,-74.679 9.821,46.434 -44.532,53.022 67.198,53.889 9.913,46.762 -93.868,-74.996 z"
         id="path674"
         inkscape:connector-curvature="0" /></clipPath><clipPath
       clipPathUnits="userSpaceOnUse"
       id="clipPath680"><path
         d="m 356.45,511.957 660.9,0 0,-348.449 -660.9,0 0,348.449 z"
         id="path682"
         inkscape:connector-curvature="0" /></clipPath><clipPath
       clipPathUnits="userSpaceOnUse"
       id="clipPath696"><path
         d="m 356.45,718.908 660.9,0 0,-348.448 -660.9,0 0,348.448 z"
         id="path698"
         inkscape:connector-curvature="0" /></clipPath><clipPath
       clipPathUnits="userSpaceOnUse"
       id="clipPath712"><path
         d="m 356.45,718.908 660.9,0 0,-348.448 -660.9,0 0,348.448 z"
         id="path714"
         inkscape:connector-curvature="0" /></clipPath><clipPath
       clipPathUnits="userSpaceOnUse"
       id="clipPath728"><path
         d="m 356.45,511.957 660.9,0 0,-348.449 -660.9,0 0,348.449 z"
         id="path730"
         inkscape:connector-curvature="0" /></clipPath><clipPath
       clipPathUnits="userSpaceOnUse"
       id="clipPath744"><path
         d="m 409.201,771.66 348.448,0 0,-660.903 -348.448,0 0,660.903 z"
         id="path746"
         inkscape:connector-curvature="0" /></clipPath><clipPath
       clipPathUnits="userSpaceOnUse"
       id="clipPath760"><path
         d="m 616.153,771.66 348.448,0 0,-660.903 -348.448,0 0,660.903 z"
         id="path762"
         inkscape:connector-curvature="0" /></clipPath><clipPath
       clipPathUnits="userSpaceOnUse"
       id="clipPath776"><path
         d="m 616.153,771.66 348.448,0 0,-660.903 -348.448,0 0,660.903 z"
         id="path778"
         inkscape:connector-curvature="0" /></clipPath><clipPath
       clipPathUnits="userSpaceOnUse"
       id="clipPath792"><path
         d="m 409.201,771.66 348.448,0 0,-660.903 -348.448,0 0,660.903 z"
         id="path794"
         inkscape:connector-curvature="0" /></clipPath><clipPath
       clipPathUnits="userSpaceOnUse"
       id="clipPath810"><path
         d="m 0,595.276 841.89,0 L 841.89,0 0,0 0,595.276 Z"
         id="path812"
         inkscape:connector-curvature="0" /></clipPath></defs><sodipodi:namedview
     pagecolor="#ffffff"
     bordercolor="#666666"
     borderopacity="1"
     objecttolerance="10"
     gridtolerance="10"
     guidetolerance="10"
     inkscape:pageopacity="0"
     inkscape:pageshadow="2"
     inkscape:window-width="1535"
     inkscape:window-height="876"
     id="namedview4"
     showgrid="false"
     inkscape:zoom="0.63432765"
     inkscape:cx="231.67866"
     inkscape:cy="125.42297"
     inkscape:window-x="65"
     inkscape:window-y="24"
     inkscape:window-maximized="1"
     inkscape:current-layer="g10"
     fit-margin-top="0"
     fit-margin-left="0"
     fit-margin-right="0"
     fit-margin-bottom="0" /><g
     id="g10"
     inkscape:groupmode="layer"
     inkscape:label="inbitcoin_new_id_07_03_2016"
     transform="matrix(1.25,0,0,-1.25,-127.75625,325.57625)"><g
       id="g216"
       transform="translate(233.2884,171.7212)"><path
         d="m 0,0 -13.183,0 2.156,10.183 -7.151,0 -8.341,-39.356 3.973,-6.178 15.433,0 6.121,5.738 L 3.973,-6.177 0,0 Z m -19.015,-27.522 4.174,19.693 11.31,0 -4.173,-19.693 -11.311,0 z"
         style="fill:#b2b1b1;fill-opacity:1;fill-rule:nonzero;stroke:none"
         id="path218"
         inkscape:connector-curvature="0" /></g><g
       id="g220"
       transform="translate(246.4888,181.9044)"><path
         d="m 0,0 -1.669,-7.878 7.155,0 L 7.155,0 0,0 Z"
         style="fill:#b2b1b1;fill-opacity:1;fill-rule:nonzero;stroke:none"
         id="path222"
         inkscape:connector-curvature="0" /></g><g
       id="g224"
       transform="translate(238.1514,142.5484)"><path
         d="m 0,0 5.379,-8.37 7.955,37.543 -7.154,0 L 0,0 Z"
         style="fill:#b2b1b1;fill-opacity:1;fill-rule:nonzero;stroke:none"
         id="path226"
         inkscape:connector-curvature="0" /></g><g
       id="g228"
       transform="translate(337.0447,181.9044)"><path
         d="m 0,0 -1.669,-7.878 7.155,0 L 7.155,0 0,0 Z"
         style="fill:#b2b1b1;fill-opacity:1;fill-rule:nonzero;stroke:none"
         id="path230"
         inkscape:connector-curvature="0" /></g><g
       id="g232"
       transform="translate(328.7061,142.5484)"><path
         d="m 0,0 5.382,-8.37 7.955,37.543 -7.156,0 L 0,0 Z"
         style="fill:#b2b1b1;fill-opacity:1;fill-rule:nonzero;stroke:none"
         id="path234"
         inkscape:connector-curvature="0" /></g><g
       id="g236"
       transform="translate(265.0133,171.6772)"><path
         d="m 0,0 2.158,10.182 -7.155,0 -9.648,-45.534 7.153,0 5.834,27.522 7.923,0 L 7.923,0 0,0 Z"
         style="fill:#b2b1b1;fill-opacity:1;fill-rule:nonzero;stroke:none"
         id="path238"
         inkscape:connector-curvature="0" /></g><g
       id="g240"
       transform="translate(295.4254,163.8922)"><path
         d="m 0,0 1.657,7.83 -14.007,0 -6.12,-5.737 -4.966,-23.435 3.972,-6.18 13.631,0 1.658,7.829 -11.757,0 L -11.758,0 0,0 Z"
         style="fill:#b2b1b1;fill-opacity:1;fill-rule:nonzero;stroke:none"
         id="path242"
         inkscape:connector-curvature="0" /></g><g
       id="g244"
       transform="translate(323.5753,171.7212)"><path
         d="m 0,0 -15.431,0 -6.122,-5.736 -4.965,-23.437 3.973,-6.178 15.431,0 6.123,5.738 L 3.974,-6.176 0,0 Z m -19.016,-27.522 4.175,19.693 11.31,0 -4.174,-19.693 -11.311,0 z"
         style="fill:#b2b1b1;fill-opacity:1;fill-rule:nonzero;stroke:none"
         id="path246"
         inkscape:connector-curvature="0" /></g><g
       id="g248"
       transform="translate(364.6885,171.7223)"><path
         d="m 0,0 -11.6,0 -6.121,-5.738 -6.275,-29.614 7.154,0 5.834,27.522 7.478,0 -5.834,-27.522 7.155,0 L 3.973,-6.18 0,0 Z"
         style="fill:#b2b1b1;fill-opacity:1;fill-rule:nonzero;stroke:none"
         id="path250"
         inkscape:connector-curvature="0" /></g><g
       id="g252"><g
         id="g254"
         clip-path="url(#clipPath256)"><g
           id="g260"><g
             id="g262" /><g
             id="g268"><g
               clip-path="url(#clipPath264)"
               id="g270"
               style="opacity:0.80000299"><g
                 transform="translate(206.1521,165.5426)"
                 id="g272"><path
                   d="m 0,0 -3.973,6.18 -11.601,0 -6.119,-5.738 -6.276,-29.615 7.154,0 5.834,27.523 7.477,0 -5.834,-27.523 7.155,0 L 0,0 Z m -26.222,8.483 1.668,7.879 -7.155,0 -1.668,-7.879 7.155,0 z m -0.49,-2.304 -7.154,0 -6.181,-29.173 5.38,-8.371 7.955,37.544 z"
                   style="fill:#f79019;fill-opacity:1;fill-rule:nonzero;stroke:none"
                   id="path274"
                   inkscape:connector-curvature="0" /></g></g></g></g></g></g><g
       id="g276"><g
         id="g278"
         clip-path="url(#clipPath280)"><g
           id="g284"><g
             id="g286" /><g
             id="g292"><g
               clip-path="url(#clipPath288)"
               id="g294"
               style="opacity:0.80000299"><g
                 transform="translate(492.4993,-185.5304)"
                 id="g296"><path
                   d="M 0,0 245.499,206.755 93.094,239.067 -81.666,92.293 -259.28,313.773 -413.404,346.448 -166.22,37.064"
                   style="fill:#f9b387;fill-opacity:1;fill-rule:nonzero;stroke:none"
                   id="path298"
                   inkscape:connector-curvature="0" /></g></g></g></g><g
           id="g300"><g
             id="g302" /><g
             id="g308"><g
               clip-path="url(#clipPath304)"
               id="g310"
               style="opacity:0.80000299"><g
                 transform="translate(324.5945,367.8696)"
                 id="g312"><path
                   d="M 0,0 -245.499,-206.755 -93.094,-239.067 81.666,-92.293 259.28,-313.773 413.404,-346.448 166.22,-37.064"
                   style="fill:#fadc7a;fill-opacity:1;fill-rule:nonzero;stroke:none"
                   id="path314"
                   inkscape:connector-curvature="0" /></g></g></g></g><g
           id="g316"><g
             id="g318" /><g
             id="g324"><g
               clip-path="url(#clipPath320)"
               id="g326"
               style="opacity:0.80000299"><g
                 transform="translate(492.4993,367.8695)"
                 id="g328"><path
                   d="M 0,0 245.499,-206.755 93.094,-239.067 -81.666,-92.293 -259.28,-313.773 -413.404,-346.448 -166.22,-37.064"
                   style="fill:#cce8a5;fill-opacity:1;fill-rule:nonzero;stroke:none"
                   id="path330"
                   inkscape:connector-curvature="0" /></g></g></g></g><g
           id="g332"><g
             id="g334" /><g
             id="g340"><g
               clip-path="url(#clipPath336)"
               id="g342"
               style="opacity:0.80000299"><g
                 transform="translate(324.5945,-185.5304)"
                 id="g344"><path
                   d="M 0,0 -245.499,206.755 -93.094,239.067 81.666,92.293 259.28,313.773 413.404,346.448 166.22,37.064"
                   style="fill:#7ecab9;fill-opacity:1;fill-rule:nonzero;stroke:none"
                   id="path346"
                   inkscape:connector-curvature="0" /></g></g></g></g><g
           id="g348"><g
             id="g350" /><g
             id="g356"><g
               clip-path="url(#clipPath352)"
               id="g358"
               style="opacity:0.80000299"><g
                 transform="translate(131.847,7.217)"
                 id="g360"><path
                   d="M 0,0 206.755,-245.499 239.067,-93.094 92.293,81.666 313.773,259.28 346.448,413.404 37.064,166.22"
                   style="fill:#dd4b61;fill-opacity:1;fill-rule:nonzero;stroke:none"
                   id="path362"
                   inkscape:connector-curvature="0" /></g></g></g></g><g
           id="g364"><g
             id="g366" /><g
             id="g372"><g
               clip-path="url(#clipPath368)"
               id="g374"
               style="opacity:0.80000299"><g
                 transform="translate(685.2469,175.1221)"
                 id="g376"><path
                   d="M 0,0 -206.755,245.499 -239.067,93.094 -92.293,-81.666 -313.773,-259.28 -346.448,-413.404 -37.064,-166.22"
                   style="fill:#9d52a4;fill-opacity:1;fill-rule:nonzero;stroke:none"
                   id="path378"
                   inkscape:connector-curvature="0" /></g></g></g></g><g
           id="g380"><g
             id="g382" /><g
             id="g388"><g
               clip-path="url(#clipPath384)"
               id="g390"
               style="opacity:0.80000299"><g
                 transform="translate(685.2467,7.217)"
                 id="g392"><path
                   d="M 0,0 -206.755,-245.499 -239.067,-93.094 -92.293,81.666 -313.773,259.28 -346.448,413.404 -37.064,166.22"
                   style="fill:#97dbc1;fill-opacity:1;fill-rule:nonzero;stroke:none"
                   id="path394"
                   inkscape:connector-curvature="0" /></g></g></g></g><g
           id="g396"><g
             id="g398" /><g
             id="g404"><g
               clip-path="url(#clipPath400)"
               id="g406"
               style="opacity:0.80000299"><g
                 transform="translate(131.847,175.1221)"
                 id="g408"><path
                   d="M 0,0 206.755,245.499 239.067,93.094 92.293,-81.666 313.773,-259.28 346.448,-413.404 37.064,-166.22"
                   style="fill:#f79019;fill-opacity:1;fill-rule:nonzero;stroke:none"
                   id="path410"
                   inkscape:connector-curvature="0" /></g></g></g></g></g></g></g></svg>