<?xml version="1.0" encoding="utf-8"?>
<!-- Generator: Adobe Illustrator 18.0.0, SVG Export Plug-In . SVG Version: 6.00 Build 0)  -->
<!DOCTYPE svg PUBLIC "-//W3C//DTD SVG 1.1//EN" "http://www.w3.org/Graphics/SVG/1.1/DTD/svg11.dtd">
<svg version="1.1" id="Layer_1" xmlns="http://www.w3.org/2000/svg" xmlns:xlink="http://www.w3.org/1999/xlink" x="0px" y="0px"
	 viewBox="0 0 279.3 68.9" enable-background="new 0 0 279.3 68.9" xml:space="preserve">
<g>
	<g>
		<path fill="#FFFFFF" d="M62.5,60.2h-5.1V43.6c0-0.3-0.3-0.6-0.6-0.6h-16c-0.3,0-0.6,0.3-0.6,0.6v16.6H35c-0.3,0-0.6,0.3-0.6,0.6
			v7.4c0,0.3,0.3,0.6,0.6,0.6h5.7h0h16h0h5.7c0.3,0,0.6-0.3,0.6-0.6v-7.4C63.1,60.5,62.9,60.2,62.5,60.2z"/>
	</g>
	<g>
		<path fill="#FFFFFF" d="M62.5,0H35c-0.3,0-0.6,0.3-0.6,0.6V8c0,0.3,0.3,0.6,0.6,0.6h5.1v16.6c0,0.3,0.3,0.6,0.6,0.6h16
			c0.3,0,0.6-0.3,0.6-0.6V8.6h5.1c0.3,0,0.6-0.3,0.6-0.6V0.6C63.1,0.3,62.9,0,62.5,0z"/>
	</g>
	<g>
		<path fill="#FFFFFF" d="M39.6,25.8H23V8.6h5.1c0.3,0,0.6-0.3,0.6-0.6V0.6c0-0.3-0.3-0.6-0.6-0.6H0.6C0.3,0,0,0.3,0,0.6V8
			c0,0.3,0.3,0.6,0.6,0.6h5.1v51.6H0.6c-0.3,0-0.6,0.3-0.6,0.6v7.4c0,0.3,0.3,0.6,0.6,0.6h5.7h16h5.7c0.3,0,0.6-0.3,0.6-0.6v-7.4
			c0-0.3-0.3-0.6-0.6-0.6H23V43h16.6c0.3,0,0.6-0.3,0.6-0.6v-16C40.2,26.1,39.9,25.8,39.6,25.8z"/>
	</g>
	<g>
		<path fill="#FFFFFF" d="M132,49.5c0-9.2-6.5-17-15.1-18.9c4.8-2.9,7.9-8.1,7.9-14.1c0-9.1-7.4-16.5-16.5-16.5l0,0l0,0h-2.7h-0.1
			h-36c-0.3,0-0.6,0.3-0.6,0.6V8c0,0.3,0.3,0.6,0.6,0.6h5.1v16.6c0,0.3,0.3,0.6,0.6,0.6h16c0.3,0,0.6-0.3,0.6-0.6V8.6h2h0h6.6
			c4.8,0,8.6,3.9,8.6,8.6c0,4.8-3.9,8.6-8.6,8.6h-5.7l0,0h-2.3c-0.4,0-0.6,0.4-0.6,0.9v15.5c0,0.5,0.3,0.9,0.6,0.9h13.7
			c4.8,0,8.6,3.9,8.6,8.6c0,4.8-3.9,8.6-8.6,8.6h-9.6l0,0h-4.7V43.6c0-0.3-0.3-0.6-0.6-0.6h-16c-0.3,0-0.6,0.3-0.6,0.6v16.6h-5.1
			c-0.3,0-0.6,0.3-0.6,0.6v7.4c0,0.3,0.3,0.6,0.6,0.6h5.7h0h16h0h18.5h0.1h2.7v0C123.3,68.9,132,60.2,132,49.5z"/>
	</g>
</g>
<g>
	<path fill="#FFFFFF" d="M153.3,0.2h4.3V13h3.8V0.2h4.3v30h-4.3V17.3h-3.8v12.9h-4.3V0.2z"/>
	<path fill="#FFFFFF" d="M169.7,0.2h11.2v4.3H174V13h5.9v4.3H174v8.6h6.9v4.3h-11.2V0.2z"/>
	<path fill="#FFFFFF" d="M184.1,30.2v-30h4.3v25.7h6.9v4.3H184.1z"/>
	<path fill="#FFFFFF" d="M198,0.2l6.3,0c3.8,0,5.8,2.1,5.8,6.3V11c0,3.1-1.4,5.1-4.1,6c-0.7,0.2-1.6,0.3-2.9,0.3h-0.7v12.9H198V0.2z
		 M202.3,4.4V13h1c0.6,0,1,0,1.2-0.1c0.8-0.3,1.2-1,1.2-1.9V6.5c0-1.4-0.6-2-1.9-2H202.3z"/>
	<path fill="#FFFFFF" d="M213.2,0.2h11.2v4.3h-6.9V13h5.9v4.3h-5.9v8.6h6.9v4.3h-11.2V0.2z"/>
	<path fill="#FFFFFF" d="M227.7,0.2l6.3,0c3.8,0,5.8,2.1,5.8,6.3V11c0,2.6-1.1,4.4-3.4,5.2l4.9,14h-4.7L232.6,17l-0.6,0.1v13.1h-4.3
		V0.2z M232,4.4V13h1c0.6,0,1,0,1.2-0.1c0.8-0.3,1.2-1,1.2-1.9V6.5c0-1.4-0.6-2-1.9-2H232z"/>
	<path fill="#FFFFFF" d="M243.7,0.2l6.7,0c3.8,0,5.8,2.1,5.8,6.3V11c0,2-0.8,3.4-2.4,4.2c1.6,0.8,2.4,2.2,2.4,4.2v4.5
		c0,4.2-1.9,6.3-5.8,6.3c-0.1,0-0.2,0-0.3,0h-6.4V0.2z M248,4.4V13h1.4c0.6,0,1,0,1.2-0.1c0.8-0.3,1.2-1,1.2-1.9V6.5
		c0-1.4-0.6-2-1.9-2H248z M248,17.3v8.6h1.9c1.3,0,1.9-0.7,1.9-2v-4.5c0-1-0.4-1.6-1.2-1.9c-0.2-0.1-0.6-0.1-1.2-0.1H248z"/>
	<path fill="#FFFFFF" d="M259.7,0.2h4.3v30h-4.3V0.2z"/>
	<path fill="#FFFFFF" d="M279.3,0.2v4.3h-4.1v25.7h-4.3V4.4h-4.1V0.2H279.3z"/>
	<path fill="#FFFFFF" d="M153.3,38.8l6.3,0c3.8,0,5.8,2.1,5.8,6.3v4.5c0,3.1-1.4,5.1-4.1,6c-0.7,0.2-1.6,0.3-2.9,0.3h-0.7v12.9h-4.3
		V38.8z M157.6,43.1v8.6h1c0.6,0,1,0,1.2-0.1c0.8-0.3,1.2-1,1.2-1.9v-4.5c0-1.4-0.6-2-1.9-2H157.6z"/>
	<path fill="#FFFFFF" d="M168.6,62.4c0-2.7,1.3-5,4-6.9c2.7-1.9,4.1-3.6,4.1-4.9v-5.9c0-1.4-0.6-2-1.9-2h0c-1.3,0-1.9,0.7-1.9,2v4
		h-4.3v-4c0-4.2,2.1-6.3,6.2-6.3c4.2,0,6.2,2.1,6.2,6.3v6c0,2.8-1.4,5.1-4.1,7c-2.7,1.9-4.1,3.6-4.1,5.1v1.8h8.1v4.3h-12.4V62.4z"/>
	<path fill="#FFFFFF" d="M185,38.8l6.3,0c3.8,0,5.8,2.1,5.8,6.3v4.5c0,3.1-1.4,5.1-4.1,6c-0.7,0.2-1.6,0.3-2.9,0.3h-0.7v12.9H185
		V38.8z M189.3,43.1v8.6h1c0.6,0,1,0,1.2-0.1c0.8-0.3,1.2-1,1.2-1.9v-4.5c0-1.4-0.6-2-1.9-2H189.3z"/>
	<path fill="#FFFFFF" d="M220.1,58.2l1.4,10.6h-4.4l-0.8-6.4h-4.4l-0.9,6.4h-4.4l1.4-10.6l3.1-19.4h5.9L220.1,58.2z M215.7,58.2
		l-1.7-12.5l-1.7,12.5H215.7z"/>
	<path fill="#FFFFFF" d="M224.2,38.8h4.3v30h-4.3V38.8z"/>
	<path fill="#FFFFFF" d="M232.6,38.8l6.7,0c3.8,0,5.8,2.1,5.8,6.3v17.4c0,4.2-1.9,6.3-5.8,6.3c-0.1,0-0.2,0-0.3,0h-6.4V38.8z
		 M236.9,43.1v21.5h1.9c1.3,0,1.9-0.7,1.9-2V45.1c0-1.4-0.6-2-1.9-2H236.9z"/>
</g>
</svg>
